<?xml version="1.0" encoding="utf-8"?>
<!-- Generator: Adobe Illustrator 21.0.0, SVG Export Plug-In . SVG Version: 6.00 Build 0)  -->
<svg version="1.1" id="Layer_1" xmlns="http://www.w3.org/2000/svg" xmlns:xlink="http://www.w3.org/1999/xlink" x="0px" y="0px"
	 viewBox="0 0 674.1 159" enable-background="new 0 0 674.1 159" xml:space="preserve">
<g>
	<rect x="1.2" y="102.6" width="614.8" height="2"/>
	<path fill="#ED1C24" d="M19.5,16.6H0.4v-14h19.1V16.6z M0.4,25.6h19.1v55.3H0.4V25.6z"/>
	<path fill="#ED1C24" d="M44.2,25.6h17.4v10.2h0.2c3.8-8,11.5-11.5,20.2-11.5c15.1,0,21.1,10.6,21.1,22.1v34.5H84V54.1
		c0-10.4-3.6-13.9-8.8-13.9c-7.9,0-11.9,5.4-11.9,17.3v23.3H44.2V25.6z"/>
	<path fill="#ED1C24" d="M132.3,39h-11.2V25.6h11.6v-3.4c0-16.5,7.7-22.2,23-22.2c4.1,0,7.3,0.6,9.8,1.1l-1.2,13.2
		c-1.6-0.5-3.2-0.8-6-0.8c-4.9,0-6.8,3.4-6.8,8.8v3.4H165V39h-13.6v41.9h-19.1V39z"/>
	<path d="M263.2,73c4,2,8.9,3.4,14.1,3.4c6.4,0,12-3.5,12-9.7c0-12.8-26-10.8-26-26.5c0-10.7,8.7-14.8,17.6-14.8
		c2.9,0,8.6,0.6,13.4,2.4l-0.6,5.8c-3.5-1.6-8.3-2.5-12-2.5c-6.9,0-11.7,2.1-11.7,9c0,10.1,26.6,8.8,26.6,26.5
		c0,11.5-10.7,15.4-18.9,15.4c-5.2,0-10.4-0.6-15.2-2.5L263.2,73z"/>
	<path d="M355.5,79.2c-4.7,1.9-10.7,3-15.7,3c-17.9,0-24.6-12.1-24.6-28.3c0-16.6,9.1-28.3,22.8-28.3c15.3,0,21.5,12.3,21.5,26.9
		v3.4h-37c0,11.5,6.2,20.7,17.8,20.7c4.9,0,12-2,15.2-4V79.2z M352.2,50c0-9.4-3.8-18.8-13.8-18.8c-9.9,0-15.9,9.9-15.9,18.8H352.2z
		"/>
	<path d="M418.2,34c-3.6-1.6-8-2.8-11.6-2.8c-13.1,0-20.4,9.4-20.4,22.6c0,12.3,7.4,22.6,19.6,22.6c4.2,0,8.2-1,12.2-2.4l0.6,6.3
		c-4.6,1.6-8.8,1.9-13.9,1.9c-17.4,0-25.9-13.3-25.9-28.3c0-16.7,10.7-28.3,26.7-28.3c6.5,0,11.1,1.5,13.1,2.1L418.2,34z"/>
	<path d="M482.9,68.1c0,4.1,0,8.4,0.4,12.7h-6.5v-9.7h-0.2c-2.2,4.9-6.3,10.9-17.5,10.9c-13.4,0-18.5-8.9-18.5-20.8V26.7h6.7v32.9
		c0,10.2,3.6,16.8,12.8,16.8c12.2,0,16-10.7,16-19.7V26.7h6.7V68.1z"/>
	<path d="M510.3,38.8c0-5.9,0-8.2-0.4-12.1h6.7v10.4h0.2c2.4-6.1,7-11.7,13.9-11.7c1.6,0,3.5,0.3,4.7,0.6v7
		c-1.4-0.4-3.2-0.6-4.9-0.6c-10.6,0-13.5,11.9-13.5,21.6v26.7h-6.7V38.8z"/>
	<path d="M562.9,12.3h-6.7V3.4h6.7V12.3z M556.2,26.7h6.7v54.1h-6.7V26.7z"/>
	<path d="M613.8,32.5h-12.3v35c0,4.9,1.8,8.9,7.2,8.9c2.5,0,4.2-0.5,6.2-1.3l0.4,5.5c-1.6,0.6-4.9,1.5-8.2,1.5
		c-11.9,0-12.3-8.2-12.3-18V32.5h-10.6v-5.7h10.6V13.7l6.7-2.3v15.4h12.3V32.5z"/>
	<path d="M651.4,71.9h0.1l15.6-45.1h7l-21.6,62.2c-2.5,7.4-6.4,14.9-13.9,14.9c-2.4,0-5-0.3-7.2-0.9l0.6-5.7c1.3,0.4,2.5,0.8,5,0.8
		c5.7,0,7.6-4.8,9.8-11.8l1.4-4.8l-19.2-54.8h7.3L651.4,71.9z"/>
	<g>
		<g>
			<g>
				<path fill-rule="evenodd" clip-rule="evenodd" fill="#ED1C24" d="M212.8,82.3c18.4,0,32.4-10.7,32.4-29.1
					c0-18.5-14-29.2-32.4-29.2c-18.4,0-32.4,10.7-32.4,29.2C180.4,71.6,194.4,82.3,212.8,82.3z M212.8,68.8
					c-8.9,0-12.5-7.4-12.5-15.6c0-8.3,3.6-15.7,12.5-15.7c8.9,0,12.5,7.4,12.5,15.7C225.3,61.5,221.6,68.8,212.8,68.8"/>
			</g>
		</g>
	</g>
</g>
<g>
	<path d="M495.8,157.1c-1.8,0.6-5.3,1.7-9.5,1.7c-4.7,0-8.5-1.2-11.5-4.1c-2.7-2.6-4.3-6.7-4.3-11.5c0-9.2,6.4-15.9,16.7-15.9
		c3.6,0,6.4,0.8,7.7,1.4l-1,3.3c-1.6-0.7-3.7-1.3-6.8-1.3c-7.5,0-12.4,4.7-12.4,12.4c0,7.8,4.7,12.5,11.9,12.5
		c2.6,0,4.4-0.4,5.3-0.8v-9.2h-6.3v-3.2h10.2V157.1z"/>
	<path d="M503.8,128c2-0.4,4.9-0.6,7.6-0.6c4.3,0,7,0.8,8.9,2.5c1.6,1.4,2.4,3.5,2.4,5.9c0,4.1-2.6,6.8-5.8,7.9v0.1
		c2.4,0.8,3.8,3,4.5,6.2c1,4.3,1.7,7.3,2.4,8.5h-4.1c-0.5-0.9-1.2-3.5-2.1-7.4c-0.9-4.3-2.6-5.9-6.2-6h-3.8v13.4h-4V128z
		 M507.8,142.1h4.1c4.3,0,7-2.3,7-5.9c0-4-2.9-5.7-7.1-5.8c-1.9,0-3.3,0.2-3.9,0.4V142.1z"/>
	<path d="M556.9,142.7c0,10.6-6.5,16.3-14.3,16.3c-8.2,0-13.9-6.3-13.9-15.7c0-9.8,6.1-16.2,14.3-16.2
		C551.4,127.1,556.9,133.5,556.9,142.7z M532.9,143.2c0,6.6,3.6,12.5,9.8,12.5c6.3,0,9.9-5.8,9.9-12.8c0-6.1-3.2-12.6-9.8-12.6
		C536.2,130.3,532.9,136.4,532.9,143.2z"/>
	<path d="M567.9,127.6v18.3c0,6.9,3.1,9.8,7.2,9.8c4.6,0,7.5-3,7.5-9.8v-18.3h4v18c0,9.5-5,13.4-11.7,13.4
		c-6.3,0-11.1-3.6-11.1-13.2v-18.2H567.9z"/>
	<path d="M595.4,128c1.9-0.3,4.4-0.6,7.6-0.6c3.9,0,6.8,0.9,8.7,2.6c1.7,1.5,2.7,3.7,2.7,6.5c0,2.8-0.8,5-2.4,6.6
		c-2.1,2.2-5.5,3.4-9.4,3.4c-1.2,0-2.3,0-3.2-0.3v12.4h-4V128z M599.4,142.8c0.9,0.2,2,0.3,3.3,0.3c4.8,0,7.7-2.3,7.7-6.6
		c0-4.1-2.9-6-7.3-6c-1.7,0-3.1,0.1-3.8,0.3V142.8z"/>
</g>
</svg>
